<svg width="20" height="20" viewBox="0 0 20 20" fill="none" xmlns="http://www.w3.org/2000/svg">
<circle cx="10" cy="10" r="10" fill="white"/>
<path d="M10.0052 20C15.4719 20 20 15.4719 20 9.99484C20 4.52811 15.4616 0 9.99484 0C4.52811 0 0 4.52811 0 9.99484C0 15.4719 4.53842 20 10.0052 20ZM6.53945 14.327C6.06498 14.327 5.68334 13.935 5.68334 13.4605C5.68334 13.2233 5.77617 13.017 5.93089 12.8623L8.78804 10.0052L5.93089 7.14801C5.77617 6.9933 5.68334 6.787 5.68334 6.56008C5.68334 6.0753 6.06498 5.70397 6.53945 5.70397C6.77669 5.70397 6.98298 5.7968 7.1377 5.95152L9.99484 8.80866L12.8726 5.95152C13.048 5.76586 13.2336 5.69366 13.4605 5.69366C13.9453 5.69366 14.327 6.06498 14.327 6.54977C14.327 6.77669 14.2445 6.97267 14.0691 7.1377L11.212 10.0052L14.0588 12.8417C14.2238 13.017 14.3167 13.213 14.3167 13.4605C14.3167 13.935 13.935 14.327 13.4502 14.327C13.213 14.327 12.9964 14.2238 12.8417 14.0691L9.99484 11.212L7.14801 14.0691C6.9933 14.2341 6.77669 14.327 6.53945 14.327Z" fill="#DC3737"/>
</svg>
